<?xml version="1.0" standalone="no"?>
<!DOCTYPE svg PUBLIC "-//W3C//DTD SVG 20010904//EN"
 "http://www.w3.org/TR/2001/REC-SVG-20010904/DTD/svg10.dtd">
<svg version="1.0" xmlns="http://www.w3.org/2000/svg"
 width="692.000000pt" height="692.000000pt" viewBox="0 0 692.000000 692.000000"
 preserveAspectRatio="xMidYMid meet">
<metadata>
Created by potrace 1.11, written by Peter Selinger 2001-2013
</metadata>
<g transform="translate(0.000000,692.000000) scale(0.100000,-0.100000)"
fill="#000000" stroke="none">
<path d="M5625 6735 c-40 -22 -298 -163 -450 -245 -44 -24 -118 -63 -165 -88
-47 -25 -89 -48 -95 -52 -5 -4 -48 -28 -95 -52 -47 -25 -105 -56 -130 -70 -25
-14 -79 -43 -120 -65 -123 -66 -262 -142 -345 -188 -22 -13 -74 -41 -115 -62
-41 -22 -106 -57 -145 -78 -113 -63 -188 -103 -225 -121 -19 -10 -37 -20 -40
-23 -3 -4 -27 -17 -54 -30 -41 -20 -66 -24 -165 -27 -449 -12 -785 -21 -1041
-29 -91 -3 -248 -7 -350 -10 -102 -3 -252 -7 -335 -10 -82 -2 -247 -7 -365
-10 -252 -7 -268 -9 -292 -37 -38 -44 -36 -80 5 -121 28 -28 29 -28 138 -25
68 2 109 -1 109 -7 -1 -5 -7 -32 -14 -59 -42 -159 32 -405 206 -690 54 -87 54
-85 -18 -125 -66 -36 -87 -68 -79 -115 14 -73 73 -87 166 -40 36 19 70 34 75
34 8 -1 63 -108 108 -210 36 -81 94 -249 106 -307 14 -70 7 -192 -15 -245 -7
-17 -61 -18 -947 -18 l-940 0 6 -142 c4 -79 9 -156 11 -173 2 -16 7 -54 10
-84 3 -30 10 -84 16 -120 6 -36 12 -75 14 -86 14 -100 75 -335 126 -488 164
-489 449 -954 806 -1313 131 -132 193 -190 268 -249 28 -22 52 -43 55 -46 12
-13 168 -127 197 -144 18 -11 33 -23 33 -27 0 -4 4 -8 9 -8 5 0 37 -18 70 -40
33 -22 62 -40 64 -40 3 0 34 -17 68 -38 244 -148 611 -290 945 -368 107 -24
123 -27 207 -39 23 -3 55 -8 72 -12 16 -3 43 -7 60 -8 16 -2 64 -7 105 -11 93
-10 540 -11 635 -1 120 13 188 22 245 32 14 3 39 7 55 10 33 5 66 12 105 20
14 3 34 7 45 9 11 2 40 9 65 16 25 7 53 14 62 15 17 4 147 42 178 53 8 3 17 6
20 7 25 6 104 35 195 72 355 143 660 328 975 592 104 87 379 371 429 444 8 12
24 31 34 42 11 11 26 31 35 45 9 14 36 50 59 82 102 134 283 455 359 633 81
191 170 462 198 605 3 14 8 36 11 50 8 35 42 235 50 295 9 65 11 101 20 273
l7 142 -1945 0 -1944 0 13 58 c33 137 13 258 -82 492 -59 148 -110 248 -208
408 -111 184 -115 190 -148 250 -17 30 -26 58 -22 62 5 5 29 20 54 33 25 13
63 34 85 47 22 12 69 38 105 57 36 19 88 46 115 62 49 26 83 45 337 182 69 38
131 69 136 69 6 0 12 4 14 8 2 5 53 35 113 66 l110 58 110 3 c61 2 214 7 340
10 127 4 284 8 350 10 66 2 210 6 320 9 110 3 277 8 370 11 94 3 256 7 360 10
301 8 292 7 321 41 33 37 27 88 -12 122 l-26 23 -232 -6 c-127 -4 -289 -8
-361 -10 -71 -2 -220 -6 -330 -10 -640 -20 -858 -25 -853 -20 2 3 26 16 54 31
90 48 109 59 116 69 4 6 8 7 8 2 0 -4 17 3 38 16 20 13 47 27 60 31 12 4 22
11 22 16 0 5 14 11 30 15 17 4 30 10 30 15 0 4 12 13 28 19 15 6 56 27 92 47
36 19 112 61 170 91 58 31 110 59 115 63 6 4 44 25 85 47 104 56 178 96 302
164 59 33 111 59 117 59 6 0 11 5 11 10 0 6 9 10 19 10 11 0 21 4 23 8 2 5 56
36 120 70 65 34 139 74 165 89 27 15 69 37 95 51 85 44 99 130 27 167 -38 20
-66 17 -114 -10z m-2391 -1294 c-13 -12 -716 -391 -724 -391 -4 0 -11 17 -15
38 -5 20 -10 44 -12 52 -9 32 -8 136 0 148 5 6 7 12 3 12 -4 0 1 15 10 33 18
35 72 87 92 87 6 0 12 3 12 8 0 4 48 7 108 7 59 0 145 2 192 5 149 9 343 9
334 1z m-848 -31 c-2 -8 -12 -35 -21 -60 -27 -74 -23 -227 9 -318 15 -42 4
-72 -28 -72 -9 0 -16 -4 -16 -10 0 -5 -4 -10 -9 -10 -4 0 -53 -25 -108 -55
-56 -30 -103 -55 -107 -55 -3 0 -23 37 -44 83 -34 71 -53 126 -81 227 -11 42
-5 137 12 182 9 24 31 54 49 68 30 24 42 26 148 29 63 1 115 3 116 4 2 1 21 2
44 2 33 1 40 -2 36 -15z m-516 -43 c-23 -52 -30 -141 -19 -223 9 -62 16 -99
19 -99 1 0 3 -7 5 -15 8 -38 41 -122 74 -191 l37 -76 -50 -28 c-28 -15 -85
-45 -126 -68 -41 -22 -80 -44 -86 -49 -8 -6 -26 15 -57 64 -181 294 -248 527
-189 661 26 59 25 59 279 65 l132 3 -19 -44z m600 -566 c0 -11 72 -137 163
-284 124 -200 198 -354 261 -547 30 -92 34 -116 32 -190 -2 -47 -9 -104 -16
-127 l-13 -43 -184 0 c-120 0 -182 3 -178 10 19 31 32 169 21 235 -3 22 -9 57
-12 77 -3 21 -10 40 -15 44 -5 3 -7 9 -4 14 3 5 1 17 -4 27 -6 10 -24 56 -41
103 -29 80 -161 360 -181 384 -20 23 -87 134 -93 152 -5 16 15 30 117 86 120
66 147 77 147 59z m-343 -272 c117 -180 230 -422 287 -617 17 -60 16 -192 -3
-259 l-12 -43 -189 0 c-105 0 -190 4 -190 9 0 4 5 33 11 62 11 58 13 134 3
196 -14 94 -110 348 -185 493 -21 42 -39 80 -39 85 0 6 46 34 103 64 56 30
116 63 132 73 27 17 31 17 40 2 6 -8 24 -38 42 -65z m4556 -1194 c-1 -27 -4
-70 -8 -95 -3 -25 -8 -61 -10 -80 -7 -58 -19 -117 -51 -265 -2 -11 -7 -31 -10
-45 -3 -14 -6 -29 -7 -35 -2 -5 -6 -16 -11 -23 -4 -7 -5 -16 -2 -19 3 -3 1
-13 -4 -23 -5 -9 -11 -28 -14 -41 -15 -75 -117 -339 -190 -493 -73 -152 -253
-452 -302 -500 -8 -8 -14 -18 -14 -23 0 -4 -13 -21 -28 -38 -15 -16 -35 -40
-43 -52 -71 -102 -355 -389 -489 -493 -61 -48 -80 -63 -95 -77 -8 -7 -18 -13
-24 -13 -6 0 -11 -4 -11 -8 0 -4 -25 -23 -54 -41 -30 -18 -56 -36 -58 -40 -11
-24 -377 -223 -528 -286 -155 -65 -386 -143 -478 -161 -12 -2 -59 -13 -105
-24 -45 -11 -100 -22 -122 -25 -22 -3 -50 -7 -63 -10 -206 -41 -603 -51 -847
-21 -16 2 -57 7 -90 10 -33 4 -67 9 -75 11 -8 2 -31 6 -50 9 -19 3 -46 8 -60
11 -14 3 -45 10 -70 15 -25 5 -72 16 -105 25 -33 9 -71 18 -84 21 -13 3 -39
11 -57 19 -19 8 -34 12 -34 10 0 -3 -37 9 -82 26 -46 17 -87 31 -93 33 -5 1
-14 4 -20 8 -5 3 -41 18 -80 33 -67 27 -283 131 -355 172 -76 43 -145 88 -148
95 -2 4 -8 8 -13 8 -8 0 -124 75 -145 95 -6 6 -23 19 -39 30 -129 93 -391 336
-510 476 -187 219 -345 463 -474 734 -32 66 -63 136 -70 155 -7 19 -17 44 -22
55 -38 84 -124 377 -150 510 -36 184 -64 398 -54 415 2 3 1454 5 3227 5 l3223
0 -2 -50z"/>
</g>
</svg>
